<svg width="452" height="230" viewBox="0 0 452 230" fill="none" xmlns="http://www.w3.org/2000/svg">
<path d="M0 1.5V5.5H56.5V178H73.5V5.5H131V1.5H0Z" fill="white"/>
<path d="M143 177.5V2H166.5L223.5 141.5L279 1H298.5V177.5H280V10L213.5 177.5L147.5 14V177.5H143Z" fill="white"/>
<path d="M406 0H399.5L303.5 89L385.5 178H413.5L321 79.5L406 0Z" fill="white"/>
<path d="M22.3486 200.091H0L0.000103661 200.929H9.77752L9.77752 229.703H12.5711L12.5711 200.929H22.3486V200.091Z" fill="white"/>
<path d="M29.8904 200.091H26.2588L26.2588 229.703H29.8904V216.294H44.417V229.703H45.5345V200.091H44.417V214.897H29.8904L29.8904 200.091Z" fill="white"/>
<path d="M65.9281 200.65H50.5635L50.5635 229.983H65.9281V229.424H53.9158L53.9158 216.294H63.9726V215.456H53.9158V201.768H65.9281V200.65Z" fill="white"/>
<path d="M80.176 229.928H79.3379V200.091H83.2489L92.7471 223.557L101.966 200.091H105.598V229.703H101.966V202.326L91.0709 229.703L80.176 203.164V229.928Z" fill="white"/>
<path d="M136.327 200.65H132.975L144.149 229.983L154.765 200.65H153.368L144.987 224.116L136.327 200.65Z" fill="white"/>
<path d="M414.565 200.65H411.213L422.387 229.983L433.003 200.65H431.606L423.225 224.116L414.565 200.65Z" fill="white"/>
<path d="M179.627 229.983H178.789V200.65H182.7L192.198 223.837L201.696 200.65H205.049V229.983H201.696V202.606L190.522 229.983L179.627 203.444V229.983Z" fill="white"/>
<path d="M174.039 200.65H158.675V229.983H174.039V229.145H162.306V216.294H172.363V215.456H162.306V201.488H174.039V200.65Z" fill="white"/>
<path d="M225.443 200.65H210.078V229.983H225.443V229.145H213.71V216.294H223.767V215.456H213.71V201.488H225.443V200.65Z" fill="white"/>
<path d="M354.226 200.65H339.141V229.983H354.226V229.424H342.772V216.294H352.829V215.177H342.772V201.209H354.226V200.65Z" fill="white"/>
<path d="M451.999 200.65H436.914V229.983H451.999V229.424H440.546V216.294H450.603V215.177H440.546V201.209H451.999V200.65Z" fill="white"/>
<path d="M230.191 200.091V229.703H231.309V205.399L248.908 229.703V200.091H248.07V223.836L230.75 200.091H230.191Z" fill="white"/>
<path d="M274.608 200.091H252.26V200.65H262.037V229.703H264.831V200.65H274.608V200.091Z" fill="white"/>
<path d="M398.364 200.091H376.016V200.65H385.793V229.703H388.587V200.65H398.364V200.091Z" fill="white"/>
<path d="M294.723 229.983H291.65V200.65H294.723V229.983Z" fill="white"/>
<path d="M309.528 229.703L296.119 214.897L312.322 200.091L312.881 200.65L299.192 213.5L313.998 229.703H309.528Z" fill="white"/>
<path d="M373.777 229.703L370.691 220.481H360.003C358.471 225.028 357.352 228.751 357.104 229.703H355.902L365.989 200.091H368.247L378.251 229.703H373.777ZM360.293 219.592H370.401L365.389 204.575L360.853 217.964L360.293 219.592Z" fill="white"/>
<path d="M317.072 229.466V200.091H324.501C333.125 200.091 335.307 204.497 335.307 207.917C335.307 212.302 332.034 214.673 329.243 215.638L336.776 229.466H332.716L325.732 216.294C324.054 216.21 321.689 216.016 320.535 215.848V229.466H317.072ZM320.535 200.972L320.535 215.072C321.857 215.198 323.494 215.282 324.837 215.282C325.445 215.282 325.991 215.261 326.431 215.219C328.152 214.568 330.838 212.659 330.838 208.127C330.838 201.539 325.277 200.972 322.739 200.972H320.535Z" fill="white"/>
<path d="M120.962 229.429C114.024 229.429 108.391 222.709 108.391 215.079C108.391 207.45 114.024 200.65 120.962 200.65C127.88 200.65 133.533 207.45 133.533 215.079C133.533 222.709 127.88 229.429 120.962 229.429ZM112.522 213.637C112.522 221.563 116.099 227.987 121.752 228.639C126.476 228.046 129.402 223.678 129.402 216.503C129.402 208.557 125.706 202.093 120.092 201.441C115.427 202.054 112.522 206.382 112.522 213.637Z" fill="white"/>
<path d="M406.745 229.703H403.672L403.393 200.091H406.745V229.703Z" fill="white"/>
</svg>
