<svg width="54" height="809" viewBox="0 0 54 809" fill="none" xmlns="http://www.w3.org/2000/svg">
<path d="M53.5 40L53.5 0L52 0.000185469L52 17.5L0.499999 17.5L0.499999 22.5L52 22.5L52 40L53.5 40Z" fill="white"/>
<path d="M53.5 53.5L53.5 47L0.5 47L0.5 53.5L24.5 53.5L24.5 79.5L0.499999 79.5L0.499998 81.5L53.5 81.5L53.5 79.5L27 79.5L27 53.5L53.5 53.5Z" fill="white"/>
<path d="M52.5 118L52.5 90.5L0 90.5L-1.20206e-06 118L0.999999 118L1 96.5L24.5 96.5L24.5 114.5L26 114.5L26 96.5L50.5 96.5L50.5 118L52.5 118Z" fill="white"/>
<path d="M0.0976562 143.5L0.0976562 142L53.5 142L53.5 149L11.5 166L53.5 182.5L53.5 189L0.499998 189L0.499998 182.5L49.5 182.5L0.499999 163L48 143.5L0.0976562 143.5Z" fill="white"/>
<path d="M52.5 244L52.5 238L-8.74228e-07 258L52.5 277L52.5 274.5L10.5 259.5L52.5 244Z" fill="white"/>
<path d="M52.5 742L52.5 736L-8.74228e-07 756L52.5 775L52.5 772.5L10.5 757.5L52.5 742Z" fill="white"/>
<path d="M-6.55671e-08 321.5L0 320L52.5 320L52.5 327L11 344L52.5 361L52.5 367L-2.05444e-06 367L-1.79217e-06 361L49 361L-9.17939e-07 341L47.5 321.5L-6.55671e-08 321.5Z" fill="white"/>
<path d="M52.5 311.5L52.5 284L0 284L-1.20206e-06 311.5L1.5 311.5L1.5 290.5L24.5 290.5L24.5 308.5L26 308.5L26 290.5L51 290.5L51 311.5L52.5 311.5Z" fill="white"/>
<path d="M52.5 403.5L52.5 376L0 376L-1.20206e-06 403.5L1.5 403.5L1.5 382.5L24.5 382.5L24.5 400.5L26 400.5L26 382.5L51 382.5L51 403.5L52.5 403.5Z" fill="white"/>
<path d="M52.5 634L52.5 607L0 607L-1.18021e-06 634L0.999999 634L1 613.5L24.5 613.5L24.5 631.5L26.5 631.5L26.5 613.5L51.5 613.5L51.5 634L52.5 634Z" fill="white"/>
<path d="M52.5 809L52.5 782L0 782L-1.18021e-06 809L0.999999 809L1 788.5L24.5 788.5L24.5 806.5L26.5 806.5L26.5 788.5L51.5 788.5L51.5 809L52.5 809Z" fill="white"/>
<path d="M53.5 412L0.5 412L0.5 414L44 414L0.499999 445.5L53.5 445.5L53.5 444L11 444L53.5 413L53.5 412Z" fill="white"/>
<path d="M53.5 491.5L53.5 451.5L52.5 451.5L52.5 469L0.499999 469L0.499999 474L52.5 474L52.5 491.5L53.5 491.5Z" fill="white"/>
<path d="M53.5 713L53.5 673L52.5 673L52.5 690.5L0.499999 690.5L0.499999 695.5L52.5 695.5L52.5 713L53.5 713Z" fill="white"/>
<path d="M-2.40413e-07 527.5L0 522L52.5 522L52.5 527.5L-2.40413e-07 527.5Z" fill="white"/>
<path d="M0.499999 554L27 530L53.5 559L52.5 560L29.5 535.5L0.499999 562L0.499999 554Z" fill="white"/>
<path d="M0.499999 668.993L17.0057 663.469L17.0057 644.34C8.86643 641.597 2.20357 639.595 0.5 639.15L0.5 637L53.5 655.054L53.5 659.095L0.499998 677L0.499999 668.993ZM18.5957 644.859L18.5957 662.95L45.4743 653.979L21.5107 645.86L18.5957 644.859Z" fill="white"/>
<path d="M0.924484 567.5L53.5 567.5L53.5 580.796C53.5 596.231 45.6137 600.137 39.4924 600.137C31.6436 600.137 27.4 594.278 25.6725 589.283L0.924483 602.765L0.924483 595.5L24.5 583C24.6502 579.996 24.9966 575.764 25.297 573.699L0.924484 573.699L0.924484 567.5ZM51.9227 573.699L26.6865 573.699C26.4612 576.064 26.3109 578.994 26.3109 581.397C26.3109 582.486 26.3485 583.463 26.4236 584.251C27.5878 587.331 31.0052 592.138 39.1168 592.138C50.9088 592.138 51.9227 582.186 51.9227 577.642L51.9227 573.699Z" fill="white"/>
<path d="M0.990577 216.5C0.990577 204.083 13.0189 194 26.6745 194C40.3302 194 52.5 204.083 52.5 216.5C52.5 228.882 40.3302 239 26.6745 239C13.0189 239 0.990576 228.882 0.990577 216.5ZM29.2571 201.394C15.0708 201.394 3.57312 207.797 2.40567 217.915C3.46699 226.37 11.2854 231.606 24.1274 231.606C38.3491 231.606 49.9174 224.991 51.0849 214.943C49.9882 206.594 42.2406 201.394 29.2571 201.394Z" fill="white"/>
<path d="M0.499997 728L0.499997 722.5L53.5 722L53.5 728L0.499997 728Z" fill="white"/>
</svg>
