<svg width="437" height="234" viewBox="0 0 437 234" fill="none" xmlns="http://www.w3.org/2000/svg">
<path d="M0 1.5V5.5H56.5V178H73.5V5.5H131V1.5H0Z" fill="white"/>
<path d="M143 177.5V2H166.5L223.5 141.5L279 1H298.5V177.5H280V10L213.5 177.5L147.5 14V177.5H143Z" fill="white"/>
<path d="M406 0H399.5L303.5 89L385.5 178H413.5L321 79.5L406 0Z" fill="white"/>
<path d="M21.6564 205H0L0.00010045 205.812H9.47466V234H12.1817V205.812H21.6564V205Z" fill="white"/>
<path d="M28.9654 205H25.4463V234H28.9654V220.701H43.0421V234H44.1249V205H43.0421V219.347H28.9654V205Z" fill="white"/>
<path d="M63.8858 205H48.9971V233.966H63.8858V233.424H52.2455V220.701H61.9909V219.889H52.2455V205.573H63.8858V205Z" fill="white"/>
<path d="M77.692 234H76.8799V205H80.6697L89.8737 227.739L98.807 205H102.326V234H98.807V207.166L88 234L77.692 207.978V234Z" fill="white"/>
<path d="M133 205H129.5L140.684 233.966L151 205H150L141.496 228.281L133 205Z" fill="white"/>
<path d="M401.725 205.542H398.477L409.305 233.966L419.592 205.542H418.238L410.117 228.281L401.725 205.542Z" fill="white"/>
<path d="M174.063 233.966H173.251V205H177L186.245 228.01L195.449 205H198.697V233.966H195.449V207.437L184.621 233.966L174.063 208.249V233.966Z" fill="white"/>
<path d="M223.061 205V234H224.143V210.143L241.198 234V205H240.386V228.01L223.602 205H223.061Z" fill="white"/>
<path d="M266.102 205H244.445V205.541H253.92V234H256.627V205.541H266.102V205Z" fill="white"/>
<path d="M386.026 205H364.369V205.541H373.844V234H376.5L376.551 205.541H386.026V205Z" fill="white"/>
<path d="M285.595 233.965H282.617V205H285.5L285.595 233.965Z" fill="white"/>
<path d="M300 234L286.947 219.347L302.648 205L303.19 205.541L289.925 217.994L304.5 234H300Z" fill="white"/>
<path d="M362 234L359.209 224.758H348.853C347.368 229.165 346.241 233.078 346 234H345L354.653 205H356.841L366.5 234H362ZM349.134 223.898H358.928L354.071 209.345L349.676 222.319L349.134 223.898Z" fill="white"/>
<path d="M306.66 234V205H314.08C322.692 205 324.872 209.35 324.872 212.726C324.872 217.056 321.603 219.396 318.816 220.349L326.339 234H322.285L315.309 220.996C313.633 220.913 311.272 220.722 310.119 220.556V234H306.66ZM310.119 205.87V219.79C311.439 219.914 313.074 219.997 314.415 219.997C315.023 219.997 315.568 219.976 316.008 219.935C317.726 219.293 320.408 217.408 320.408 212.934C320.408 206.429 314.855 205.87 312.319 205.87H310.119Z" fill="white"/>
<path d="M117 234C110.377 234 105 227.228 105 219.54C105 211.852 110.377 205 117 205C123.604 205 129 211.852 129 219.54C129 227.228 123.604 234 117 234ZM108.943 218.086C108.943 226.073 112.358 232.546 117.755 233.203C122.264 232.606 125.057 228.204 125.057 220.974C125.057 212.967 121.528 206.454 116.17 205.797C111.717 206.414 108.943 210.776 108.943 218.086Z" fill="white"/>
<path d="M394.147 234H391L390.898 205H394.147V234Z" fill="white"/>
<path d="M168.889 205H154V233.966H168.889V233.424H157.248V220.701H166.994V219.889H157.248V205.573H168.889V205Z" fill="white"/>
<path d="M218.889 205H204V233.966H218.889V233.424H207.248V220.701H216.994V219.889H207.248V205.573H218.889V205Z" fill="white"/>
<path d="M343.889 205H329V233.966H343.889V233.424H332.248V220.701H341.994V219.889H332.248V205.573H343.889V205Z" fill="white"/>
<path d="M436.889 205H422V233.966H436.889V233.424H425.248V220.701H434.994V219.889H425.248V205.573H436.889V205Z" fill="white"/>
</svg>
